{
  "accessors": [
    {
      "bufferView": 2,
      "componentType": 5126,
      "count": 65532,
      "max": [
        1.5392969846725464,
        3.633676052093506,
        1.40146803855896
      ],
      "min": [
        -1.5004819631576538,
        -2.2337939739227295,
        0.28252899646759033
      ],
      "type": "VEC3"
    },
    {
      "bufferView": 2,
      "byteOffset": 786384,
      "componentType": 5126,
      "count": 65532,
      "max": [
        1.0,
        1.0,
        1.0
      ],
      "min": [
        -1.0,
        -1.0,
        -1.0
      ],
      "type": "VEC3"
    },
    {
      "bufferView": 3,
      "componentType": 5126,
      "count": 65532,
      "max": [
        1.0,
        1.0,
        1.0,
        1.0
      ],
      "min": [
        -0.9999145269393921,
        -1.0,
        -1.0,
        -1.0
      ],
      "type": "VEC4"
    },
    {
      "bufferView": 1,
      "componentType": 5126,
      "count": 65532,
      "max": [
        0.9828150272369385,
        1.0
      ],
      "min": [
        0.0,
        0.0
      ],
      "type": "VEC2"
    },
    {
      "bufferView": 0,
      "componentType": 5125,
      "count": 158994,
      "type": "SCALAR"
    },
    {
      "bufferView": 2,
      "byteOffset": 1572768,
      "componentType": 5126,
      "count": 23562,
      "max": [
        1.5231750011444092,
        3.5263829231262207,
        1.2288589477539063
      ],
      "min": [
        -1.4800779819488525,
        -2.2337939739227295,
        0.2861950099468231
      ],
      "type": "VEC3"
    },
    {
      "bufferView": 2,
      "byteOffset": 1855512,
      "componentType": 5126,
      "count": 23562,
      "max": [
        1.0,
        1.0,
        1.0
      ],
      "min": [
        -1.0,
        -1.0,
        -1.0
      ],
      "type": "VEC3"
    },
    {
      "bufferView": 3,
      "byteOffset": 1048512,
      "componentType": 5126,
      "count": 23562,
      "max": [
        1.0,
        1.0,
        1.0,
        1.0
      ],
      "min": [
        -0.9046803116798401,
        -1.0,
        -1.0,
        -1.0
      ],
      "type": "VEC4"
    },
    {
      "bufferView": 1,
      "byteOffset": 524256,
      "componentType": 5126,
      "count": 23562,
      "max": [
        0.9828109741210938,
        0.9996989965438843
      ],
      "min": [
        0.0,
        0.012868000194430351
      ],
      "type": "VEC2"
    },
    {
      "bufferView": 0,
      "byteOffset": 635976,
      "componentType": 5125,
      "count": 44652,
      "type": "SCALAR"
    },
    {
      "bufferView": 2,
      "byteOffset": 2138256,
      "componentType": 5126,
      "count": 12894,
      "max": [
        0.419512003660202,
        -0.4828430116176605,
        1.780830979347229
      ],
      "min": [
        -0.30811598896980286,
        -3.757035970687866,
        1.2160149812698364
      ],
      "type": "VEC3"
    },
    {
      "bufferView": 2,
      "byteOffset": 2292984,
      "componentType": 5126,
      "count": 12894,
      "max": [
        1.0,
        1.0,
        1.0
      ],
      "min": [
        -1.0,
        -1.0,
        -1.0
      ],
      "type": "VEC3"
    },
    {
      "bufferView": 3,
      "byteOffset": 1425504,
      "componentType": 5126,
      "count": 12894,
      "max": [
        1.0,
        1.0,
        1.0,
        1.0
      ],
      "min": [
        -0.9239621758460999,
        -1.0,
        -1.0,
        -1.0
      ],
      "type": "VEC4"
    },
    {
      "bufferView": 1,
      "byteOffset": 712752,
      "componentType": 5126,
      "count": 12894,
      "max": [
        1.0,
        0.9690330028533936
      ],
      "min": [
        0.0,
        0.0
      ],
      "type": "VEC2"
    },
    {
      "bufferView": 0,
      "byteOffset": 814584,
      "componentType": 5125,
      "count": 30756,
      "type": "SCALAR"
    },
    {
      "bufferView": 2,
      "byteOffset": 2447712,
      "componentType": 5126,
      "count": 65533,
      "max": [
        1.4349299669265747,
        3.33555006980896,
        0.914126992225647
      ],
      "min": [
        -1.396070957183838,
        -2.095557928085327,
        0.01116700004786253
      ],
      "type": "VEC3"
    },
    {
      "bufferView": 2,
      "byteOffset": 3234108,
      "componentType": 5126,
      "count": 65533,
      "max": [
        1.0,
        1.0,
        1.0
      ],
      "min": [
        -1.0,
        -1.0,
        -1.0
      ],
      "type": "VEC3"
    },
    {
      "bufferView": 3,
      "byteOffset": 1631808,
      "componentType": 5126,
      "count": 65533,
      "max": [
        1.0,
        1.0,
        1.0,
        1.0
      ],
      "min": [
        -0.7834010720252991,
        -1.0,
        -1.0,
        -1.0
      ],
      "type": "VEC4"
    },
    {
      "bufferView": 1,
      "byteOffset": 815904,
      "componentType": 5126,
      "count": 65533,
      "max": [
        0.9999279975891113,
        0.9999840259552002
      ],
      "min": [
        0.0,
        5.700000110664405e-05
      ],
      "type": "VEC2"
    },
    {
      "bufferView": 0,
      "byteOffset": 937608,
      "componentType": 5125,
      "count": 156867,
      "type": "SCALAR"
    },
    {
      "bufferView": 2,
      "byteOffset": 4020504,
      "componentType": 5126,
      "count": 65533,
      "max": [
        1.4349299669265747,
        3.3415420055389404,
        0.9234610199928284
      ],
      "min": [
        -1.396070957183838,
        -2.104543924331665,
        0.0020749999675899744
      ],
      "type": "VEC3"
    },
    {
      "bufferView": 2,
      "byteOffset": 4806900,
      "componentType": 5126,
      "count": 65533,
      "max": [
        1.0,
        1.0,
        1.0
      ],
      "min": [
        -1.0,
        -1.0,
        -1.0
      ],
      "type": "VEC3"
    },
    {
      "bufferView": 3,
      "byteOffset": 2680336,
      "componentType": 5126,
      "count": 65533,
      "max": [
        1.0,
        1.0,
        1.0,
        1.0
      ],
      "min": [
        -0.9274569749832153,
        -1.0,
        -1.0,
        -1.0
      ],
      "type": "VEC4"
    },
    {
      "bufferView": 1,
      "byteOffset": 1340168,
      "componentType": 5126,
      "count": 65533,
      "max": [
        0.9999430179595947,
        0.999987006187439
      ],
      "min": [
        0.0,
        3.9999998989515007e-05
      ],
      "type": "VEC2"
    },
    {
      "bufferView": 0,
      "byteOffset": 1565076,
      "componentType": 5125,
      "count": 131358,
      "type": "SCALAR"
    },
    {
      "bufferView": 2,
      "byteOffset": 5593296,
      "componentType": 5126,
      "count": 65534,
      "max": [
        1.4349219799041748,
        3.346647024154663,
        0.9219740033149719
      ],
      "min": [
        -1.3960609436035156,
        -2.0987980365753174,
        0.0014819999923929572
      ],
      "type": "VEC3"
    },
    {
      "bufferView": 2,
      "byteOffset": 6379704,
      "componentType": 5126,
      "count": 65534,
      "max": [
        1.0,
        1.0,
        1.0
      ],
      "min": [
        -1.0,
        -1.0,
        -1.0
      ],
      "type": "VEC3"
    },
    {
      "bufferView": 3,
      "byteOffset": 3728864,
      "componentType": 5126,
      "count": 65534,
      "max": [
        1.0,
        1.0,
        1.0,
        1.0
      ],
      "min": [
        -0.9101215600967407,
        -1.0,
        -1.0,
        -1.0
      ],
      "type": "VEC4"
    },
    {
      "bufferView": 1,
      "byteOffset": 1864432,
      "componentType": 5126,
      "count": 65534,
      "max": [
        0.9999470114707947,
        1.0
      ],
      "min": [
        0.0,
        0.0
      ],
      "type": "VEC2"
    },
    {
      "bufferView": 0,
      "byteOffset": 2090508,
      "componentType": 5125,
      "count": 139584,
      "type": "SCALAR"
    },
    {
      "bufferView": 2,
      "byteOffset": 7166112,
      "componentType": 5126,
      "count": 26705,
      "max": [
        -0.8895260095596313,
        2.632719039916992,
        0.8823549747467041
      ],
      "min": [
        -1.3960700035095215,
        -1.36885404586792,
        0.7589700222015381
      ],
      "type": "VEC3"
    },
    {
      "bufferView": 2,
      "byteOffset": 7486572,
      "componentType": 5126,
      "count": 26705,
      "max": [
        1.0,
        1.0,
        1.0
      ],
      "min": [
        -1.0,
        -1.0,
        -1.0
      ],
      "type": "VEC3"
    },
    {
      "bufferView": 3,
      "byteOffset": 4777408,
      "componentType": 5126,
      "count": 26705,
      "max": [
        1.0,
        1.0,
        1.0,
        1.0
      ],
      "min": [
        -0.7822470664978027,
        -1.0,
        -1.0,
        -1.0
      ],
      "type": "VEC4"
    },
    {
      "bufferView": 1,
      "byteOffset": 2388704,
      "componentType": 5126,
      "count": 26705,
      "max": [
        0.9999290108680725,
        0.999987006187439
      ],
      "min": [
        0.0,
        5.900000178371556e-05
      ],
      "type": "VEC2"
    },
    {
      "bufferView": 0,
      "byteOffset": 2648844,
      "componentType": 5125,
      "count": 56895,
      "type": "SCALAR"
    },
    {
      "bufferView": 2,
      "byteOffset": 7807032,
      "componentType": 5126,
      "count": 33943,
      "max": [
        1.2685869932174683,
        2.790313959121704,
        3.2631869316101074
      ],
      "min": [
        -1.2108720541000366,
        -1.2084170579910278,
        1.2592869997024536
      ],
      "type": "VEC3"
    },
    {
      "bufferView": 2,
      "byteOffset": 8214348,
      "componentType": 5126,
      "count": 33943,
      "max": [
        1.0,
        1.0,
        1.0
      ],
      "min": [
        -1.0,
        -1.0,
        -1.0
      ],
      "type": "VEC3"
    },
    {
      "bufferView": 3,
      "byteOffset": 5204688,
      "componentType": 5126,
      "count": 33943,
      "max": [
        1.0,
        1.0,
        1.0,
        1.0
      ],
      "min": [
        -1.0,
        -1.0,
        -1.0,
        -1.0
      ],
      "type": "VEC4"
    },
    {
      "bufferView": 1,
      "byteOffset": 2602344,
      "componentType": 5126,
      "count": 33943,
      "max": [
        0.9972320199012756,
        1.0
      ],
      "min": [
        0.0,
        0.0
      ],
      "type": "VEC2"
    },
    {
      "bufferView": 0,
      "byteOffset": 2876424,
      "componentType": 5125,
      "count": 94371,
      "type": "SCALAR"
    },
    {
      "bufferView": 2,
      "byteOffset": 8621664,
      "componentType": 5126,
      "count": 39900,
      "max": [
        1.4179450273513794,
        3.3092329502105713,
        0.884568989276886
      ],
      "min": [
        -1.3791300058364868,
        -2.0535330772399902,
        0.03637000173330307
      ],
      "type": "VEC3"
    },
    {
      "bufferView": 2,
      "byteOffset": 9100464,
      "componentType": 5126,
      "count": 39900,
      "max": [
        1.0,
        1.0,
        1.0
      ],
      "min": [
        -1.0,
        -1.0,
        -1.0
      ],
      "type": "VEC3"
    },
    {
      "bufferView": 3,
      "byteOffset": 5747776,
      "componentType": 5126,
      "count": 39900,
      "max": [
        1.0,
        1.0,
        1.0,
        1.0
      ],
      "min": [
        -0.9499581456184387,
        -1.0,
        -1.0,
        1.0
      ],
      "type": "VEC4"
    },
    {
      "bufferView": 1,
      "byteOffset": 2873888,
      "componentType": 5126,
      "count": 39900,
      "max": [
        0.9969980120658875,
        1.0
      ],
      "min": [
        0.0,
        0.0
      ],
      "type": "VEC2"
    },
    {
      "bufferView": 0,
      "byteOffset": 3253908,
      "componentType": 5125,
      "count": 100176,
      "type": "SCALAR"
    }
  ],
  "asset": {
    "extras": {
      "author": "GlitterWhisp (https://sketchfab.com/GlitterWhisp)",
      "license": "CC-BY-4.0 (http://creativecommons.org/licenses/by/4.0/)",
      "source": "https://sketchfab.com/3d-models/leopard-2-a4-9ac35414a643406898d7e56a638135e0",
      "title": "Leopard 2 A4"
    },
    "generator": "Sketchfab-15.38.0",
    "version": "2.0"
  },
  "bufferViews": [
    {
      "buffer": 0,
      "byteLength": 3654612,
      "name": "floatBufferViews",
      "target": 34963
    },
    {
      "buffer": 0,
      "byteLength": 3193088,
      "byteOffset": 3654612,
      "byteStride": 8,
      "name": "floatBufferViews",
      "target": 34962
    },
    {
      "buffer": 0,
      "byteLength": 9579264,
      "byteOffset": 6847700,
      "byteStride": 12,
      "name": "floatBufferViews",
      "target": 34962
    },
    {
      "buffer": 0,
      "byteLength": 6386176,
      "byteOffset": 16426964,
      "byteStride": 16,
      "name": "floatBufferViews",
      "target": 34962
    }
  ],
  "buffers": [
    {
      "byteLength": 22813140,
      "uri": "scene.bin"
    }
  ],
  "images": [
    {
      "uri": "textures/HullHull_baseColor.png"
    },
    {
      "uri": "textures/HullHull_metallicRoughness.png"
    },
    {
      "uri": "textures/HullHull_normal.png"
    },
    {
      "uri": "textures/MainGunMainGun_baseColor.png"
    },
    {
      "uri": "textures/MainGunMainGun_metallicRoughness.png"
    },
    {
      "uri": "textures/MainGunMainGun_normal.png"
    },
    {
      "uri": "textures/TracksTracks_baseColor.png"
    },
    {
      "uri": "textures/TracksTracks_metallicRoughness.png"
    },
    {
      "uri": "textures/TracksTracks_normal.png"
    },
    {
      "uri": "textures/TurretTurret_baseColor.png"
    },
    {
      "uri": "textures/TurretTurret_metallicRoughness.png"
    },
    {
      "uri": "textures/TurretTurret_normal.png"
    },
    {
      "uri": "textures/WheelsWheels_baseColor.png"
    },
    {
      "uri": "textures/WheelsWheels_metallicRoughness.png"
    },
    {
      "uri": "textures/WheelsWheels_normal.png"
    }
  ],
  "materials": [
    {
      "doubleSided": true,
      "name": "HullHull",
      "normalTexture": {
        "index": 2
      },
      "occlusionTexture": {
        "index": 1
      },
      "pbrMetallicRoughness": {
        "baseColorTexture": {
          "index": 0
        },
        "metallicRoughnessTexture": {
          "index": 1
        }
      }
    },
    {
      "doubleSided": true,
      "name": "MainGunMainGun",
      "normalTexture": {
        "index": 5
      },
      "occlusionTexture": {
        "index": 4
      },
      "pbrMetallicRoughness": {
        "baseColorTexture": {
          "index": 3
        },
        "metallicRoughnessTexture": {
          "index": 4
        }
      }
    },
    {
      "doubleSided": true,
      "name": "TracksTracks",
      "normalTexture": {
        "index": 8
      },
      "occlusionTexture": {
        "index": 7
      },
      "pbrMetallicRoughness": {
        "baseColorTexture": {
          "index": 6
        },
        "metallicRoughnessTexture": {
          "index": 7
        }
      }
    },
    {
      "doubleSided": true,
      "name": "TurretTurret",
      "normalTexture": {
        "index": 11
      },
      "occlusionTexture": {
        "index": 10
      },
      "pbrMetallicRoughness": {
        "baseColorTexture": {
          "index": 9
        },
        "metallicRoughnessTexture": {
          "index": 10
        }
      }
    },
    {
      "doubleSided": true,
      "name": "WheelsWheels",
      "normalTexture": {
        "index": 14
      },
      "occlusionTexture": {
        "index": 13
      },
      "pbrMetallicRoughness": {
        "baseColorTexture": {
          "index": 12
        },
        "metallicRoughnessTexture": {
          "index": 13
        }
      }
    }
  ],
  "meshes": [
    {
      "name": "Object_0",
      "primitives": [
        {
          "attributes": {
            "NORMAL": 1,
            "POSITION": 0,
            "TANGENT": 2,
            "TEXCOORD_0": 3
          },
          "indices": 4,
          "material": 0,
          "mode": 4
        }
      ]
    },
    {
      "name": "Object_1",
      "primitives": [
        {
          "attributes": {
            "NORMAL": 6,
            "POSITION": 5,
            "TANGENT": 7,
            "TEXCOORD_0": 8
          },
          "indices": 9,
          "material": 0,
          "mode": 4
        }
      ]
    },
    {
      "name": "Object_2",
      "primitives": [
        {
          "attributes": {
            "NORMAL": 11,
            "POSITION": 10,
            "TANGENT": 12,
            "TEXCOORD_0": 13
          },
          "indices": 14,
          "material": 1,
          "mode": 4
        }
      ]
    },
    {
      "name": "Object_3",
      "primitives": [
        {
          "attributes": {
            "NORMAL": 16,
            "POSITION": 15,
            "TANGENT": 17,
            "TEXCOORD_0": 18
          },
          "indices": 19,
          "material": 2,
          "mode": 4
        }
      ]
    },
    {
      "name": "Object_4",
      "primitives": [
        {
          "attributes": {
            "NORMAL": 21,
            "POSITION": 20,
            "TANGENT": 22,
            "TEXCOORD_0": 23
          },
          "indices": 24,
          "material": 2,
          "mode": 4
        }
      ]
    },
    {
      "name": "Object_5",
      "primitives": [
        {
          "attributes": {
            "NORMAL": 26,
            "POSITION": 25,
            "TANGENT": 27,
            "TEXCOORD_0": 28
          },
          "indices": 29,
          "material": 2,
          "mode": 4
        }
      ]
    },
    {
      "name": "Object_6",
      "primitives": [
        {
          "attributes": {
            "NORMAL": 31,
            "POSITION": 30,
            "TANGENT": 32,
            "TEXCOORD_0": 33
          },
          "indices": 34,
          "material": 2,
          "mode": 4
        }
      ]
    },
    {
      "name": "Object_7",
      "primitives": [
        {
          "attributes": {
            "NORMAL": 36,
            "POSITION": 35,
            "TANGENT": 37,
            "TEXCOORD_0": 38
          },
          "indices": 39,
          "material": 3,
          "mode": 4
        }
      ]
    },
    {
      "name": "Object_8",
      "primitives": [
        {
          "attributes": {
            "NORMAL": 41,
            "POSITION": 40,
            "TANGENT": 42,
            "TEXCOORD_0": 43
          },
          "indices": 44,
          "material": 4,
          "mode": 4
        }
      ]
    }
  ],
  "nodes": [
    {
      "children": [
        1
      ],
      "matrix": [
        1.0,
        0.0,
        0.0,
        0.0,
        0.0,
        2.220446049250313e-16,
        -1.0,
        0.0,
        0.0,
        1.0,
        2.220446049250313e-16,
        0.0,
        0.0,
        0.0,
        0.0,
        1.0
      ],
      "name": "Sketchfab_model"
    },
    {
      "children": [
        2,
        3,
        4,
        5,
        6,
        7,
        8,
        9,
        10
      ],
      "name": "LeopardUnwrap.obj.cleaner.materialmerger.gles"
    },
    {
      "mesh": 0,
      "name": "Object_2"
    },
    {
      "mesh": 1,
      "name": "Object_3"
    },
    {
      "mesh": 2,
      "name": "Object_4"
    },
    {
      "mesh": 3,
      "name": "Object_5"
    },
    {
      "mesh": 4,
      "name": "Object_6"
    },
    {
      "mesh": 5,
      "name": "Object_7"
    },
    {
      "mesh": 6,
      "name": "Object_8"
    },
    {
      "mesh": 7,
      "name": "Object_9"
    },
    {
      "mesh": 8,
      "name": "Object_10"
    }
  ],
  "samplers": [
    {
      "magFilter": 9729,
      "minFilter": 9987,
      "wrapS": 10497,
      "wrapT": 10497
    }
  ],
  "scene": 0,
  "scenes": [
    {
      "name": "Sketchfab_Scene",
      "nodes": [
        0
      ]
    }
  ],
  "textures": [
    {
      "sampler": 0,
      "source": 0
    },
    {
      "sampler": 0,
      "source": 1
    },
    {
      "sampler": 0,
      "source": 2
    },
    {
      "sampler": 0,
      "source": 3
    },
    {
      "sampler": 0,
      "source": 4
    },
    {
      "sampler": 0,
      "source": 5
    },
    {
      "sampler": 0,
      "source": 6
    },
    {
      "sampler": 0,
      "source": 7
    },
    {
      "sampler": 0,
      "source": 8
    },
    {
      "sampler": 0,
      "source": 9
    },
    {
      "sampler": 0,
      "source": 10
    },
    {
      "sampler": 0,
      "source": 11
    },
    {
      "sampler": 0,
      "source": 12
    },
    {
      "sampler": 0,
      "source": 13
    },
    {
      "sampler": 0,
      "source": 14
    }
  ]
}
